<svg xmlns="http://www.w3.org/2000/svg" viewBox="0 0 6.35 6.35" id="About"><path d="M 3.175 0 A 3.175 3.175 0 0 0 0 3.175 A 3.175 3.175 0 0 0 3.175 6.35 A 3.175 3.175 0 0 0 6.35 3.175 A 3.175 3.175 0 0 0 3.175 0 z M 3.175 1.3229167 A 0.26458332 0.26458332 0 0 1 3.4395833 1.5875 A 0.26458332 0.26458332 0 0 1 3.175 1.8520833 A 0.26458332 0.26458332 0 0 1 2.9104167 1.5875 A 0.26458332 0.26458332 0 0 1 3.175 1.3229167 z M 3.1760335 2.3807332 A 0.2645835 0.2645835 0 0 1 3.4395833 2.6463501 L 3.4395833 4.7619832 A 0.2645835 0.2645835 0 0 1 3.1760335 5.0276001 A 0.2645835 0.2645835 0 0 1 2.9104167 4.7619832 L 2.9104167 2.6463501 A 0.2645835 0.2645835 0 0 1 3.1760335 2.3807332 z " paint-order="markers fill stroke" fill="#ffffff" class="color000000 svgShape"></path></svg>