<svg id="visual" viewBox="0 0 900 600" width="900" height="600" xmlns="http://www.w3.org/2000/svg" xmlns:xlink="http://www.w3.org/1999/xlink" version="1.1"><rect x="0" y="0" width="900" height="600" fill="#140021"></rect><path d="M457 600L462 600L462 571L647 571L647 543L546 543L546 514L475 514L475 486L557 486L557 457L583 457L583 429L543 429L543 400L660 400L660 371L519 371L519 343L640 343L640 314L641 314L641 286L629 286L629 257L536 257L536 229L544 229L544 200L458 200L458 171L491 171L491 143L509 143L509 114L497 114L497 86L497 86L497 57L432 57L432 29L505 29L505 0L900 0L900 29L900 29L900 57L900 57L900 86L900 86L900 114L900 114L900 143L900 143L900 171L900 171L900 200L900 200L900 229L900 229L900 257L900 257L900 286L900 286L900 314L900 314L900 343L900 343L900 371L900 371L900 400L900 400L900 429L900 429L900 457L900 457L900 486L900 486L900 514L900 514L900 543L900 543L900 571L900 571L900 600L900 600Z" fill="#9900ff"></path><path d="M549 600L577 600L577 571L490 571L490 543L637 543L637 514L525 514L525 486L501 486L501 457L653 457L653 429L644 429L644 400L499 400L499 371L549 371L549 343L581 343L581 314L505 314L505 286L622 286L622 257L598 257L598 229L676 229L676 200L601 200L601 171L673 171L673 143L473 143L473 114L515 114L515 86L649 86L649 57L479 57L479 29L605 29L605 0L900 0L900 29L900 29L900 57L900 57L900 86L900 86L900 114L900 114L900 143L900 143L900 171L900 171L900 200L900 200L900 229L900 229L900 257L900 257L900 286L900 286L900 314L900 314L900 343L900 343L900 371L900 371L900 400L900 400L900 429L900 429L900 457L900 457L900 486L900 486L900 514L900 514L900 543L900 543L900 571L900 571L900 600L900 600Z" fill="#9200f3"></path><path d="M583 600L575 600L575 571L577 571L577 543L627 543L627 514L689 514L689 486L578 486L578 457L612 457L612 429L630 429L630 400L678 400L678 371L633 371L633 343L587 343L587 314L507 314L507 286L530 286L530 257L552 257L552 229L497 229L497 200L676 200L676 171L547 171L547 143L623 143L623 114L555 114L555 86L619 86L619 57L613 57L613 29L675 29L675 0L900 0L900 29L900 29L900 57L900 57L900 86L900 86L900 114L900 114L900 143L900 143L900 171L900 171L900 200L900 200L900 229L900 229L900 257L900 257L900 286L900 286L900 314L900 314L900 343L900 343L900 371L900 371L900 400L900 400L900 429L900 429L900 457L900 457L900 486L900 486L900 514L900 514L900 543L900 543L900 571L900 571L900 600L900 600Z" fill="#8b00e8"></path><path d="M615 600L605 600L605 571L707 571L707 543L641 543L641 514L543 514L543 486L603 486L603 457L572 457L572 429L669 429L669 400L605 400L605 371L620 371L620 343L704 343L704 314L622 314L622 286L725 286L725 257L689 257L689 229L634 229L634 200L597 200L597 171L662 171L662 143L694 143L694 114L610 114L610 86L721 86L721 57L697 57L697 29L666 29L666 0L900 0L900 29L900 29L900 57L900 57L900 86L900 86L900 114L900 114L900 143L900 143L900 171L900 171L900 200L900 200L900 229L900 229L900 257L900 257L900 286L900 286L900 314L900 314L900 343L900 343L900 371L900 371L900 400L900 400L900 429L900 429L900 457L900 457L900 486L900 486L900 514L900 514L900 543L900 543L900 571L900 571L900 600L900 600Z" fill="#8400dc"></path><path d="M705 600L586 600L586 571L655 571L655 543L635 543L635 514L641 514L641 486L697 486L697 457L672 457L672 429L705 429L705 400L697 400L697 371L600 371L600 343L600 343L600 314L673 314L673 286L749 286L749 257L627 257L627 229L654 229L654 200L741 200L741 171L646 171L646 143L646 143L646 114L749 114L749 86L715 86L715 57L720 57L720 29L690 29L690 0L900 0L900 29L900 29L900 57L900 57L900 86L900 86L900 114L900 114L900 143L900 143L900 171L900 171L900 200L900 200L900 229L900 229L900 257L900 257L900 286L900 286L900 314L900 314L900 343L900 343L900 371L900 371L900 400L900 400L900 429L900 429L900 457L900 457L900 486L900 486L900 514L900 514L900 543L900 543L900 571L900 571L900 600L900 600Z" fill="#7e00d1"></path><path d="M754 600L762 600L762 571L776 571L776 543L756 543L756 514L648 514L648 486L639 486L639 457L631 457L631 429L689 429L689 400L669 400L669 371L771 371L771 343L731 343L731 314L662 314L662 286L690 286L690 257L744 257L744 229L755 229L755 200L700 200L700 171L633 171L633 143L772 143L772 114L759 114L759 86L730 86L730 57L713 57L713 29L722 29L722 0L900 0L900 29L900 29L900 57L900 57L900 86L900 86L900 114L900 114L900 143L900 143L900 171L900 171L900 200L900 200L900 229L900 229L900 257L900 257L900 286L900 286L900 314L900 314L900 343L900 343L900 371L900 371L900 400L900 400L900 429L900 429L900 457L900 457L900 486L900 486L900 514L900 514L900 543L900 543L900 571L900 571L900 600L900 600Z" fill="#7700c6"></path><path d="M726 600L752 600L752 571L767 571L767 543L725 543L725 514L673 514L673 486L787 486L787 457L665 457L665 429L780 429L780 400L734 400L734 371L693 371L693 343L748 343L748 314L798 314L798 286L760 286L760 257L687 257L687 229L706 229L706 200L780 200L780 171L719 171L719 143L762 143L762 114L674 114L674 86L686 86L686 57L765 57L765 29L663 29L663 0L900 0L900 29L900 29L900 57L900 57L900 86L900 86L900 114L900 114L900 143L900 143L900 171L900 171L900 200L900 200L900 229L900 229L900 257L900 257L900 286L900 286L900 314L900 314L900 343L900 343L900 371L900 371L900 400L900 400L900 429L900 429L900 457L900 457L900 486L900 486L900 514L900 514L900 543L900 543L900 571L900 571L900 600L900 600Z" fill="#7000bb"></path><path d="M714 600L774 600L774 571L781 571L781 543L801 543L801 514L818 514L818 486L720 486L720 457L707 457L707 429L751 429L751 400L819 400L819 371L810 371L810 343L758 343L758 314L821 314L821 286L748 286L748 257L723 257L723 229L742 229L742 200L799 200L799 171L727 171L727 143L732 143L732 114L776 114L776 86L772 86L772 57L819 57L819 29L807 29L807 0L900 0L900 29L900 29L900 57L900 57L900 86L900 86L900 114L900 114L900 143L900 143L900 171L900 171L900 200L900 200L900 229L900 229L900 257L900 257L900 286L900 286L900 314L900 314L900 343L900 343L900 371L900 371L900 400L900 400L900 429L900 429L900 457L900 457L900 486L900 486L900 514L900 514L900 543L900 543L900 571L900 571L900 600L900 600Z" fill="#6a00b0"></path><path d="M771 600L748 600L748 571L748 571L748 543L754 543L754 514L795 514L795 486L817 486L817 457L771 457L771 429L792 429L792 400L818 400L818 371L765 371L765 343L779 343L779 314L829 314L829 286L768 286L768 257L812 257L812 229L808 229L808 200L789 200L789 171L787 171L787 143L751 143L751 114L777 114L777 86L751 86L751 57L747 57L747 29L755 29L755 0L900 0L900 29L900 29L900 57L900 57L900 86L900 86L900 114L900 114L900 143L900 143L900 171L900 171L900 200L900 200L900 229L900 229L900 257L900 257L900 286L900 286L900 314L900 314L900 343L900 343L900 371L900 371L900 400L900 400L900 429L900 429L900 457L900 457L900 486L900 486L900 514L900 514L900 543L900 543L900 571L900 571L900 600L900 600Z" fill="#6300a5"></path><path d="M837 600L806 600L806 571L798 571L798 543L854 543L854 514L808 514L808 486L859 486L859 457L834 457L834 429L799 429L799 400L841 400L841 371L821 371L821 343L808 343L808 314L814 314L814 286L833 286L833 257L788 257L788 229L819 229L819 200L844 200L844 171L786 171L786 143L820 143L820 114L816 114L816 86L809 86L809 57L807 57L807 29L862 29L862 0L900 0L900 29L900 29L900 57L900 57L900 86L900 86L900 114L900 114L900 143L900 143L900 171L900 171L900 200L900 200L900 229L900 229L900 257L900 257L900 286L900 286L900 314L900 314L900 343L900 343L900 371L900 371L900 400L900 400L900 429L900 429L900 457L900 457L900 486L900 486L900 514L900 514L900 543L900 543L900 571L900 571L900 600L900 600Z" fill="#5c009b"></path><path d="M874 600L835 600L835 571L874 571L874 543L873 543L873 514L881 514L881 486L841 486L841 457L825 457L825 429L829 429L829 400L882 400L882 371L858 371L858 343L887 343L887 314L828 314L828 286L858 286L858 257L865 257L865 229L878 229L878 200L877 200L877 171L860 171L860 143L866 143L866 114L867 114L867 86L839 86L839 57L861 57L861 29L844 29L844 0L900 0L900 29L900 29L900 57L900 57L900 86L900 86L900 114L900 114L900 143L900 143L900 171L900 171L900 200L900 200L900 229L900 229L900 257L900 257L900 286L900 286L900 314L900 314L900 343L900 343L900 371L900 371L900 400L900 400L900 429L900 429L900 457L900 457L900 486L900 486L900 514L900 514L900 543L900 543L900 571L900 571L900 600L900 600Z" fill="#560090"></path></svg>